<svg xmlns="http://www.w3.org/2000/svg" width="400" height="300" viewBox="0 0 400 300">
  <!-- Background elements -->
  <rect x="50" y="50" width="300" height="200" rx="20" ry="20" fill="#f5f7ff" />
  
  <!-- Shield outline -->
  <path d="M200 70 L260 90 L260 170 C260 200 200 230 200 230 C200 230 140 200 140 170 L140 90 Z" 
        fill="#fff" stroke="#4361ee" stroke-width="3" />
  
  <!-- Lock body -->
  <rect x="175" y="140" width="50" height="40" rx="5" ry="5" fill="#4361ee" />
  
  <!-- Lock shackle -->
  <path d="M185 140 L185 120 C185 110 215 110 215 120 L215 140" 
        fill="none" stroke="#4361ee" stroke-width="8" stroke-linecap="round" />
  
  <!-- Keyhole -->
  <circle cx="200" cy="155" r="8" fill="#fff" />
  <rect x="198" y="155" width="4" height="10" fill="#fff" />
  
  <!-- Data elements -->
  <g opacity="0.7">
    <!-- Data element 1 -->
    <rect x="100" y="100" width="30" height="10" rx="2" ry="2" fill="#4361ee" />
    <rect x="100" y="115" width="20" height="10" rx="2" ry="2" fill="#4361ee" />
    
    <!-- Data element 2 -->
    <rect x="270" y="100" width="30" height="10" rx="2" ry="2" fill="#4361ee" />
    <rect x="280" y="115" width="20" height="10" rx="2" ry="2" fill="#4361ee" />
    
    <!-- Data element 3 -->
    <rect x="100" y="190" width="25" height="10" rx="2" ry="2" fill="#4361ee" />
    <rect x="100" y="205" width="35" height="10" rx="2" ry="2" fill="#4361ee" />
    
    <!-- Data element 4 -->
    <rect x="270" y="190" width="30" height="10" rx="2" ry="2" fill="#4361ee" />
    <rect x="260" y="205" width="40" height="10" rx="2" ry="2" fill="#4361ee" />
  </g>
  
  <!-- Connection lines representing encrypted data -->
  <line x1="130" y1="105" x2="175" y2="140" stroke="#4361ee" stroke-width="1" stroke-dasharray="5,5" />
  <line x1="270" y1="105" x2="225" y2="140" stroke="#4361ee" stroke-width="1" stroke-dasharray="5,5" />
  <line x1="135" y1="195" x2="175" y2="170" stroke="#4361ee" stroke-width="1" stroke-dasharray="5,5" />
  <line x1="270" y1="195" x2="225" y2="170" stroke="#4361ee" stroke-width="1" stroke-dasharray="5,5" />
  
  <!-- User icon -->
  <circle cx="200" cy="40" r="15" fill="#4361ee" />
  <circle cx="200" cy="35" r="5" fill="#fff" />
  <path d="M190 45 Q200 55 210 45" fill="#fff" />
  
  <!-- Check marks for verified security -->
  <circle cx="90" cy="150" r="10" fill="#4361ee" opacity="0.8" />
  <path d="M85 150 L90 155 L95 145" stroke="#fff" stroke-width="2" fill="none" />
  
  <circle cx="310" cy="150" r="10" fill="#4361ee" opacity="0.8" />
  <path d="M305 150 L310 155 L315 145" stroke="#fff" stroke-width="2" fill="none" />
</svg>